<svg width="2000" height="2000" viewBox="0 0 2000 2000" fill="none" xmlns="http://www.w3.org/2000/svg">
<path d="M738.275 163.991C726.225 228.868 764.965 245.827 785.841 246.197C812.732 246.197 835.625 227.629 842.442 197.476L849.418 133.838C915.122 244.165 926.157 351.202 923.462 390.93H999.883V217.156C917.595 1.64212 884.141 21.4795 824.05 21.4795C763.959 21.4795 753.338 82.8961 738.275 163.991Z" fill="black"/>
<path d="M1262.71 163.991C1274.82 228.868 1235.9 245.827 1214.93 246.197C1187.91 246.197 1164.91 227.629 1158.06 197.476L1151.05 133.838C1085.04 244.165 1073.95 351.202 1076.66 390.93H999.883V217.156C1082.56 1.64212 1116.17 21.4795 1176.54 21.4795C1236.91 21.4795 1247.58 82.8961 1262.71 163.991Z" fill="black"/>
<path d="M1184.85 559.87C1184.85 662.704 1102.04 746.068 999.887 746.068C897.734 746.068 814.922 662.704 814.922 559.87C814.922 457.036 897.734 373.672 999.887 373.672C1102.04 373.672 1184.85 457.036 1184.85 559.87Z" fill="white"/>
<path fill-rule="evenodd" clip-rule="evenodd" d="M999.887 710.736C1082.39 710.736 1149.57 643.363 1149.57 559.87C1149.57 476.378 1082.39 409.004 999.887 409.004C917.388 409.004 850.2 476.378 850.2 559.87C850.2 643.363 917.388 710.736 999.887 710.736ZM999.887 746.068C1102.04 746.068 1184.85 662.704 1184.85 559.87C1184.85 457.036 1102.04 373.672 999.887 373.672C897.734 373.672 814.922 457.036 814.922 559.87C814.922 662.704 897.734 746.068 999.887 746.068Z" fill="black"/>
<path d="M944.393 560.26C944.393 550.726 936.388 542.997 926.513 542.997C916.638 542.997 908.633 550.726 908.633 560.26C908.633 569.794 916.638 577.523 926.513 577.523C936.388 577.523 944.393 569.794 944.393 560.26Z" fill="black"/>
<path d="M1092.36 560.26C1092.36 550.726 1084.36 542.997 1074.48 542.997C1064.61 542.997 1056.6 550.726 1056.6 560.26C1056.6 569.794 1064.61 577.523 1074.48 577.523C1084.36 577.523 1092.36 569.794 1092.36 560.26Z" fill="black"/>
<path d="M1255.14 1116.61C1255.14 1339.65 1141.13 1520.45 1000.5 1520.45C859.871 1520.45 745.867 1339.65 745.867 1116.61C745.867 893.579 859.871 712.773 1000.5 712.773C1141.13 712.773 1255.14 893.579 1255.14 1116.61Z" fill="white"/>
<path fill-rule="evenodd" clip-rule="evenodd" d="M1150.78 1383.3C1192.78 1316.69 1219.91 1222.5 1219.91 1116.61C1219.91 1010.73 1192.78 916.534 1150.78 849.923C1108.49 782.863 1054.48 748.088 1000.5 748.088C946.526 748.088 892.512 782.863 850.229 849.923C808.228 916.534 781.098 1010.73 781.098 1116.61C781.098 1222.5 808.228 1316.69 850.229 1383.3C892.512 1450.36 946.526 1485.14 1000.5 1485.14C1054.48 1485.14 1108.49 1450.36 1150.78 1383.3ZM1000.5 1520.45C1141.13 1520.45 1255.14 1339.65 1255.14 1116.61C1255.14 893.579 1141.13 712.773 1000.5 712.773C859.871 712.773 745.867 893.579 745.867 1116.61C745.867 1339.65 859.871 1520.45 1000.5 1520.45Z" fill="black"/>
<path d="M875.344 1389.74H964.127V1977.93H875.344V1389.74Z" fill="black"/>
<path d="M1033.18 1389.74H1123.2V1977.93H1033.18V1389.74Z" fill="black"/>
<path d="M991.25 1357.69H1008.51V1977.94H991.25V1357.69Z" fill="black"/>
<path d="M1000.5 1367.55C1061.45 1367.55 1110.87 1310.13 1110.87 1239.3H890.141C890.141 1310.13 939.552 1367.55 1000.5 1367.55Z" fill="black"/>
<path d="M1000.5 1897.78L1086.2 1979.17H914.797L1000.5 1897.78Z" fill="white"/>
<path fill-rule="evenodd" clip-rule="evenodd" d="M1000.5 1917.28L950.181 1965.07H1050.81L1000.5 1917.28ZM1000.5 1897.78L914.797 1979.17H1086.2L1000.5 1897.78Z" fill="black"/>
<path fill-rule="evenodd" clip-rule="evenodd" d="M1000.5 1374.95C915.254 1374.95 845.845 1268.53 843.281 1135.73H852.422H881.421H1119.58H1134.28H1157.72C1155.16 1268.53 1085.75 1374.95 1000.5 1374.95ZM1116.63 1174.12H884.369C890.104 1216.91 903.588 1254.18 921.45 1282.21C945.75 1320.35 974.629 1336.88 1000.5 1336.88C1026.37 1336.88 1055.25 1320.35 1079.55 1282.21C1097.42 1254.18 1110.9 1216.91 1116.63 1174.12Z" fill="black"/>
<path fill-rule="evenodd" clip-rule="evenodd" d="M1776 551C1776 648.754 1696.75 728 1599 728C1547.51 728 1501.15 706.01 1468.8 670.908C1511.06 662.604 1546.29 637.173 1565.24 603.016H1429.77C1424.72 586.569 1422 569.102 1422 551C1422 453.246 1501.25 374 1599 374C1696.75 374 1776 453.246 1776 551ZM1532.53 545.223C1514.98 545.223 1500.75 530.991 1500.75 513.436H1489.19C1489.19 537.375 1508.59 556.782 1532.53 556.782C1556.47 556.782 1575.88 537.375 1575.88 513.436H1564.32C1564.32 530.991 1550.09 545.223 1532.53 545.223Z" fill="white"/>
<path fill-rule="evenodd" clip-rule="evenodd" d="M187 1078C187 1175.75 266.246 1255 364 1255C415.495 1255 461.854 1233.01 494.198 1197.91C451.943 1189.6 416.712 1164.17 397.758 1130.02H533.233C538.283 1113.57 541 1096.1 541 1078C541 980.246 461.754 901 364 901C266.246 901 187 980.246 187 1078ZM430.467 1072.22C448.023 1072.22 462.254 1057.99 462.254 1040.44H473.814C473.814 1064.38 454.407 1083.78 430.467 1083.78C406.527 1083.78 387.12 1064.38 387.12 1040.44H398.679C398.679 1057.99 412.911 1072.22 430.467 1072.22Z" fill="white"/>
</svg>
