<svg width="6685" height="2330" viewBox="0 0 6685 2330" fill="none" xmlns="http://www.w3.org/2000/svg">
<path d="M2357.09 1487.72V851.094H3327.49V960.229H2474.41V1114.84H3327.49V1223.97H2474.41V1378.58H3326.58V1487.72H2357.09Z" fill="white"/>
<path d="M2050.23 961.138V1487.72H1932.91V961.138H1730.1V851.094H2255.77V961.138H2050.23Z" fill="white"/>
<path d="M714.031 1487.72V851.094H1438.87C1480.71 851.094 1516.48 858.369 1546.19 872.921C1575.9 887.472 1599.54 906.268 1617.12 929.307C1634.71 951.741 1646.23 977.205 1651.68 1005.7C1657.75 1033.59 1657.44 1061.18 1650.77 1088.46C1644.71 1115.75 1632.28 1141.21 1613.49 1164.86C1595.3 1187.9 1571.04 1205.78 1540.73 1218.52L1718.98 1487.72H1578.93L1415.22 1237.61H831.351V1487.72H714.031ZM831.351 962.048V1126.66H1438.87C1460.7 1126.66 1478.58 1122.72 1492.53 1114.84C1507.08 1106.35 1517.99 1096.04 1525.27 1083.92C1532.54 1071.79 1535.88 1058.75 1535.27 1044.81C1535.27 1030.26 1531.63 1016.92 1524.36 1004.79C1517.69 992.666 1507.08 982.662 1492.53 974.78C1478.58 966.292 1460.7 962.048 1438.87 962.048H831.351Z" fill="white"/>
<path d="M296.484 842H315.582L612.975 1487.72H491.108L452.001 1403.14H160.974L120.958 1487.72H0L296.484 842ZM401.071 1293.09L306.488 1088.46L210.994 1293.09H401.071Z" fill="white"/>
<path d="M2357.09 645.715V9.09375H6858.41V118.229H2474.41V272.837H6792.02V381.972H2474.41V536.58H6857.5V645.715H2357.09Z" fill="white"/>
<path d="M2050.24 119.138V645.715H1932.92V119.138H1730.11V9.09375H2255.78V119.138H2050.24Z" fill="white"/>
<path d="M714.031 645.715V9.09375H1438.87C1480.71 9.09375 1516.48 16.3694 1546.19 30.9208C1575.9 45.4721 1599.54 64.2676 1617.12 87.3072C1634.71 109.741 1646.23 135.205 1651.68 163.702C1657.75 191.592 1657.44 219.179 1650.77 246.463C1644.71 273.746 1632.28 299.211 1613.49 322.857C1595.3 345.897 1571.04 363.783 1540.73 376.515L1718.98 645.715H1578.93L1415.22 395.614H831.351V645.715H714.031ZM831.351 120.048V284.66H1438.87C1460.7 284.66 1478.58 280.719 1492.53 272.837C1507.08 264.349 1517.99 254.041 1525.27 241.915C1532.54 229.789 1535.88 216.754 1535.27 202.809C1535.27 188.257 1531.63 174.918 1524.36 162.792C1517.69 150.666 1507.08 140.662 1492.53 132.78C1478.58 124.292 1460.7 120.048 1438.87 120.048H831.351Z" fill="white"/>
<path d="M296.484 0H315.582L612.975 645.716H491.108L452.001 561.136H160.974L120.958 645.716H0L296.484 0ZM401.071 451.092L306.488 246.463L210.994 451.092H401.071Z" fill="white"/>
<path d="M2357.09 2329.72V1693.09H3327.49V1802.23H2474.41V1956.84H3327.49V2065.97H2474.41V2220.58H3326.58V2329.72H2357.09Z" fill="white"/>
<path d="M2050.23 1803.14V2329.72H1932.91V1803.14H1730.1V1693.09H2255.77V1803.14H2050.23Z" fill="white"/>
<path d="M714.031 2329.72V1693.09H1438.87C1480.71 1693.09 1516.48 1700.37 1546.19 1714.92C1575.9 1729.47 1599.54 1748.27 1617.12 1771.31C1634.71 1793.74 1646.23 1819.21 1651.68 1847.7C1657.75 1875.59 1657.44 1903.18 1650.77 1930.46C1644.71 1957.75 1632.28 1983.21 1613.49 2006.86C1595.3 2029.9 1571.04 2047.78 1540.73 2060.52L1718.98 2329.72H1578.93L1415.22 2079.61H831.351V2329.72H714.031ZM831.351 1804.05V1968.66H1438.87C1460.7 1968.66 1478.58 1964.72 1492.53 1956.84C1507.08 1948.35 1517.99 1938.04 1525.27 1925.92C1532.54 1913.79 1535.88 1900.75 1535.27 1886.81C1535.27 1872.26 1531.63 1858.92 1524.36 1846.79C1517.69 1834.67 1507.08 1824.66 1492.53 1816.78C1478.58 1808.29 1460.7 1804.05 1438.87 1804.05H831.351Z" fill="white"/>
<path d="M296.484 1684H315.582L612.975 2329.72H491.108L452.001 2245.14H160.974L120.958 2329.72H0L296.484 1684ZM401.071 2135.09L306.488 1930.46L210.994 2135.09H401.071Z" fill="white"/>
</svg>
