<svg width="2000" height="2000" viewBox="0 0 2000 2000" fill="none" xmlns="http://www.w3.org/2000/svg">
<path d="M919.69 205.334C965.337 164.22 1034.66 164.22 1080.31 205.334L1141.7 260.625C1170.25 286.341 1209.39 296.829 1246.97 288.834L1327.78 271.644C1387.87 258.862 1447.91 293.525 1466.88 351.954L1492.4 430.531C1504.27 467.078 1532.92 495.731 1569.47 507.599L1648.05 533.117C1706.48 552.091 1741.14 612.129 1728.36 672.217L1711.17 753.026C1703.17 790.61 1713.66 829.751 1739.38 858.303L1794.67 919.69C1835.78 965.337 1835.78 1034.66 1794.67 1080.31L1739.38 1141.7C1713.66 1170.25 1703.17 1209.39 1711.17 1246.97L1728.36 1327.78C1741.14 1387.87 1706.48 1447.91 1648.05 1466.88L1569.47 1492.4C1532.92 1504.27 1504.27 1532.92 1492.4 1569.47L1466.88 1648.05C1447.91 1706.48 1387.87 1741.14 1327.78 1728.36L1246.97 1711.17C1209.39 1703.17 1170.25 1713.66 1141.7 1739.38L1080.31 1794.67C1034.66 1835.78 965.337 1835.78 919.69 1794.67L858.303 1739.38C829.751 1713.66 790.61 1703.17 753.026 1711.17L672.217 1728.36C612.129 1741.14 552.091 1706.48 533.117 1648.05L507.599 1569.47C495.731 1532.92 467.078 1504.27 430.531 1492.4L351.954 1466.88C293.525 1447.91 258.862 1387.87 271.644 1327.78L288.834 1246.97C296.829 1209.39 286.341 1170.25 260.625 1141.7L205.334 1080.31C164.22 1034.66 164.22 965.337 205.334 919.69L260.625 858.303C286.341 829.751 296.829 790.61 288.834 753.026L271.644 672.217C258.862 612.129 293.525 552.091 351.954 533.117L430.531 507.599C467.078 495.731 495.731 467.078 507.599 430.531L533.117 351.954C552.091 293.525 612.129 258.862 672.217 271.644L753.026 288.834C790.61 296.829 829.751 286.341 858.303 260.625L919.69 205.334Z" fill="#FF00C8"/>
</svg>
