<svg width="2000" height="2000" viewBox="0 0 2000 2000" fill="none" xmlns="http://www.w3.org/2000/svg">
<path fill-rule="evenodd" clip-rule="evenodd" d="M668.412 672.028C849.79 720.629 957.428 907.063 908.828 1088.44C860.228 1269.82 673.793 1377.46 492.415 1328.86C311.036 1280.26 203.398 1093.82 251.998 912.445C300.599 731.066 487.033 623.428 668.412 672.028ZM511.944 1264.98C499.935 1261.76 492.808 1249.41 496.026 1237.4L535.002 1091.94C538.22 1079.93 550.564 1072.81 562.573 1076.02C574.582 1079.24 581.709 1091.59 578.491 1103.6L539.514 1249.06C536.297 1261.07 523.953 1268.19 511.944 1264.98ZM668.461 951.115C656.452 954.333 649.325 966.677 652.543 978.686C655.761 990.695 668.105 997.822 680.114 994.604L825.576 955.628C837.585 952.41 844.712 940.066 841.494 928.057C838.276 916.048 825.932 908.921 813.923 912.139L668.461 951.115ZM519.25 942.977C510.459 951.769 496.205 951.769 487.414 942.977L380.928 836.492C372.137 827.7 372.137 813.447 380.928 804.656C389.72 795.864 403.973 795.864 412.764 804.656L519.25 911.141C528.041 919.933 528.041 934.186 519.25 942.977ZM605.903 1007.28C609.675 993.197 601.32 978.725 587.24 974.952C573.16 971.179 558.688 979.535 554.916 993.615C551.143 1007.69 559.499 1022.17 573.578 1025.94C587.658 1029.71 602.13 1021.36 605.903 1007.28Z" fill="white"/>
<path fill-rule="evenodd" clip-rule="evenodd" d="M1201.41 1294.9C1038.79 1201.01 983.074 993.068 1076.96 830.449C1170.85 667.829 1378.79 612.112 1541.41 706C1704.03 799.888 1759.75 1007.83 1665.86 1170.45C1571.97 1333.07 1364.03 1388.79 1201.41 1294.9ZM1506.01 762.651C1516.78 768.867 1520.47 782.635 1514.25 793.402L1438.96 923.82C1432.74 934.587 1418.97 938.276 1408.21 932.06C1397.44 925.844 1393.75 912.076 1399.97 901.309L1475.26 770.891C1481.48 760.124 1495.25 756.435 1506.01 762.651ZM1273.6 1025.31C1286.03 1025.31 1296.11 1015.23 1296.11 1002.8C1296.11 990.363 1286.03 980.284 1273.6 980.284L1123 980.284C1110.57 980.284 1100.49 990.363 1100.49 1002.8C1100.49 1015.23 1110.57 1025.31 1123 1025.31L1273.6 1025.31ZM1415.62 1071.79C1426.38 1065.57 1440.15 1069.26 1446.37 1080.03L1521.66 1210.44C1527.88 1221.21 1524.19 1234.98 1513.42 1241.2C1502.66 1247.41 1488.89 1243.72 1482.67 1232.96L1407.38 1102.54C1401.16 1091.77 1404.85 1078 1415.62 1071.79ZM1348.56 987.251C1341.27 999.874 1345.6 1016.02 1358.22 1023.3C1370.84 1030.59 1386.98 1026.27 1394.27 1013.64C1401.56 1001.02 1397.24 984.879 1384.61 977.591C1371.99 970.303 1355.85 974.628 1348.56 987.251Z" fill="white"/>
</svg>
