<svg width="2000" height="2000" viewBox="0 0 2000 2000" fill="none" xmlns="http://www.w3.org/2000/svg">
<path d="M1304 976H1352V1378H1304V976Z" fill="black"/>
<path fill-rule="evenodd" clip-rule="evenodd" d="M1327.78 1007.92C1170.66 1007.92 1042.73 811.771 1038 567H1054.85H1108.3H1547.26H1574.35H1617.56C1612.83 811.771 1484.9 1007.92 1327.78 1007.92Z" fill="white"/>
<path d="M1327.41 994.276C1439.76 994.276 1530.83 888.449 1530.83 757.906H1124C1124 888.449 1215.07 994.276 1327.41 994.276Z" fill="black"/>
<path fill-rule="evenodd" clip-rule="evenodd" d="M1327.78 1007.92C1170.66 1007.92 1042.73 811.771 1038 567H1054.85H1108.3H1547.26H1574.35H1617.56C1612.83 811.771 1484.9 1007.92 1327.78 1007.92ZM1541.83 637.758H1113.73C1124.3 716.632 1149.15 785.332 1182.08 836.998C1226.86 907.282 1280.09 937.747 1327.78 937.747C1375.47 937.747 1428.69 907.282 1473.48 836.998C1506.41 785.332 1531.26 716.632 1541.83 637.758Z" fill="black"/>
<path d="M1322.78 1327.02C1325.79 1325.73 1329.21 1325.73 1332.22 1327.02L1461.18 1382.22C1473.18 1387.35 1469.51 1405.25 1456.46 1405.25H1198.54C1185.49 1405.25 1181.82 1387.35 1193.82 1382.22L1322.78 1327.02Z" fill="black"/>
<rect x="401" y="1038" width="452" height="96" fill="white" stroke="black" stroke-width="36"/>
<rect x="383" y="1237" width="488" height="23" fill="black"/>
<rect x="383" y="1164" width="488" height="58" fill="black"/>
<rect x="401" y="1293" width="452" height="96" fill="white" stroke="black" stroke-width="36"/>
<rect x="616" y="795" width="23" height="248" fill="black"/>
<circle cx="627" cy="906" r="72" fill="#FF006F"/>
<circle cx="658.5" cy="886.5" r="19.5" fill="white"/>
</svg>
