<svg width="2000" height="2000" viewBox="0 0 2000 2000" fill="none" xmlns="http://www.w3.org/2000/svg">
<path d="M1577 1049H1625V1451H1577V1049Z" fill="black"/>
<path fill-rule="evenodd" clip-rule="evenodd" d="M1600.78 1080.92C1443.66 1080.92 1315.73 884.771 1311 640H1327.85H1381.3H1820.26H1847.35H1890.56C1885.83 884.771 1757.9 1080.92 1600.78 1080.92Z" fill="white"/>
<path d="M1600.41 1067.28C1712.76 1067.28 1803.83 961.449 1803.83 830.906H1397C1397 961.449 1488.07 1067.28 1600.41 1067.28Z" fill="black"/>
<path fill-rule="evenodd" clip-rule="evenodd" d="M1600.78 1080.92C1443.66 1080.92 1315.73 884.771 1311 640H1327.85H1381.3H1820.26H1847.35H1890.56C1885.83 884.771 1757.9 1080.92 1600.78 1080.92ZM1814.83 710.758H1386.73C1397.3 789.632 1422.15 858.332 1455.08 909.998C1499.86 980.282 1553.09 1010.75 1600.78 1010.75C1648.47 1010.75 1701.69 980.282 1746.48 909.998C1779.41 858.332 1804.26 789.632 1814.83 710.758Z" fill="black"/>
<path d="M1595.78 1400.02C1598.79 1398.73 1602.21 1398.73 1605.22 1400.02L1734.18 1455.22C1746.18 1460.35 1742.51 1478.25 1729.46 1478.25H1471.54C1458.49 1478.25 1454.82 1460.35 1466.82 1455.22L1595.78 1400.02Z" fill="black"/>
</svg>
